<svg xmlns="http://www.w3.org/2000/svg" viewBox="0 18.5 170.39999389648438 38" data-asc="1.11"><g fill="#000000"><g fill="#000000" transform="translate(0, 0)"><path d="M4.65 29.35L0 29.35L0 43.90Q0 56.15 9.55 56.25Q15.35 56.25 17.25 51.50L17.25 55.65L21.90 55.65L21.90 29.35L17.25 29.35L17.25 42.30Q17.25 52.05 9.95 52.05Q4.65 52.05 4.65 42.90L4.65 29.35ZM45.40 55.65L50.05 55.65L50.05 38.25Q50.05 28.65 39.95 28.60Q37.55 28.60 35.10 30.30Q32.60 31.95 31.50 34.85L31.50 28.70L26.85 28.70L26.85 55.65L31.50 55.65L31.50 42.75Q31.50 37.85 33.70 35.35Q35.85 32.85 39.85 32.85Q45.40 32.85 45.40 39.55L45.40 55.65ZM56.80 25.45L61.80 25.45L61.80 20.55L56.80 20.55L56.80 25.45M57.15 55.65L61.70 55.65L61.70 29.45L57.15 29.45L57.15 55.65ZM82.60 22.15Q84.35 22.15 84.95 23.20L85.30 20.80Q84.65 18.50 81.50 18.50Q78.35 18.50 75.55 21.10Q72.75 23.70 72.75 28.25L72.75 30.85L66.55 30.85L66.55 34.50L72.75 34.50L72.75 55.65L77.35 55.65L77.35 34.50L85.15 34.50L85.15 30.85L77.35 30.85L77.35 28.25Q77.35 22.15 82.60 22.15L82.60 22.15ZM108.45 32.35Q104.80 28.40 99.45 28.40Q94.05 28.40 90.55 32.35Q87.05 36.30 87.05 42.25Q87.05 48.20 90.55 52.35Q94.05 56.50 99.40 56.50Q104.75 56.50 108.40 52.35Q112.10 48.20 112.10 42.25Q112.10 36.30 108.45 32.35L108.45 32.35M93.70 35.10Q95.75 32.15 99.30 32.15Q102.85 32.15 104.95 35.10Q107.05 38.00 107.05 42.15Q107.05 46.30 104.95 49.55Q102.80 52.75 99.25 52.75Q95.70 52.75 93.65 49.50Q91.65 46.30 91.65 42.20Q91.65 38.05 93.70 35.10L93.70 35.10ZM128.60 28.60Q126.00 28.60 123.75 30.30Q121.55 32.00 120.60 35.15L120.60 29.85L115.95 29.85L115.95 55.65L120.60 55.65L120.60 40.90Q120.60 37.00 122.55 35.05Q124.50 33.10 128.80 32.95Q129.75 32.95 130.75 33.15L130.80 28.70Q129.10 28.60 128.60 28.60L128.60 28.60ZM153.55 33.10Q151.15 28.60 144.95 28.60Q141.35 28.60 139.70 33.45L139.70 28.70L135.05 28.70L135.05 55.65L139.70 55.65L139.70 38.80Q139.70 36.60 141.20 34.75Q142.60 32.90 145.35 32.90Q148.15 32.90 149.25 34.80Q150.40 36.65 150.40 38.65L150.40 55.65L155.05 55.65L155.05 38.80Q155.05 36.60 156.85 34.75Q158.70 32.90 161.45 32.90Q164.15 32.90 165 34.80Q165.75 36.75 165.75 39.65L165.75 55.65L170.40 55.65L170.40 38.65Q170.40 34.45 168.30 31.50Q166.20 28.60 161.05 28.60Q155.85 28.60 153.55 33.10L153.55 33.10Z"/></g></g></svg>